<svg xmlns="http://www.w3.org/2000/svg" xmlns:xlink="http://www.w3.org/1999/xlink" width="500" zoomAndPan="magnify" viewBox="0 0 375 374.999991" height="500" preserveAspectRatio="xMidYMid meet" version="1.0"><defs><g/></defs><rect x="-37.5" width="450" fill="#ffffff" y="-37.499999" height="449.999989" fill-opacity="1"/><rect x="-37.5" width="450" fill="#ffffff" y="-37.499999" height="449.999989" fill-opacity="1"/><g fill="#000000" fill-opacity="1"><g transform="translate(14.698246, 200.07386)"><g><path d="M 59.40625 -40.859375 C 57.78125 -41.765625 55.625 -41.40625 54.71875 -39.78125 C 42.484375 -21.234375 22.140625 9.71875 8.8125 6.84375 C 6.65625 6.296875 4.859375 4.859375 3.59375 2.515625 C 0 -3.953125 0.546875 -16.921875 4.6875 -28.265625 C 9.1875 -40.3125 14.578125 -43.375 15.65625 -43.203125 C 15.84375 -43.015625 16.921875 -40.6875 15.484375 -35.09375 C 14.9375 -33.125 16.015625 -31.3125 17.8125 -30.78125 C 19.796875 -30.421875 21.59375 -31.5 22.140625 -33.296875 C 25.5625 -46.265625 19.625 -49.140625 17.8125 -49.859375 C 11.15625 -51.84375 3.0625 -43.921875 -1.796875 -30.59375 C -5.9375 -19.4375 -7.734375 -3.59375 -2.34375 5.9375 C -0.1875 10.078125 3.234375 12.59375 7.375 13.5 C 8.453125 13.859375 9.546875 13.859375 10.625 13.859375 C 26.28125 13.859375 43.203125 -9.71875 60.484375 -36 C 61.5625 -37.625 61.015625 -39.78125 59.40625 -40.859375 Z M 59.40625 -40.859375 "/></g></g></g><g fill="#000000" fill-opacity="1"><g transform="translate(67.978249, 200.07386)"><g><path d="M 65.15625 -39.0625 C 63.546875 -40.3125 61.375 -39.953125 60.296875 -38.515625 C 52.734375 -28.796875 40.3125 -20.703125 30.78125 -22.5 C 30.953125 -23.765625 31.140625 -25.015625 31.140625 -26.28125 C 32.40625 -46.625 26.09375 -50.765625 22.3125 -51.484375 C 18 -52.375 13.5 -49.140625 11.34375 -43.734375 C 10.4375 -44.09375 9.359375 -44.09375 8.453125 -43.375 C 1.265625 -38.875 -4.6875 -27.359375 -1.4375 -14.9375 C 0.71875 -7.5625 5.765625 -2.875 12.421875 -2.875 C 18.71875 -2.875 25.375 -7.5625 28.796875 -15.84375 C 41.40625 -13.140625 56.515625 -22.5 65.703125 -34.203125 C 66.953125 -35.8125 66.59375 -37.984375 65.15625 -39.0625 Z M 12.59375 -9.71875 C 12.421875 -9.71875 12.421875 -9.71875 12.421875 -9.71875 C 7.921875 -9.90625 5.9375 -14.21875 5.40625 -16.734375 C 3.59375 -22.859375 5.046875 -31.3125 10.078125 -36 C 10.4375 -29.875 13.859375 -23.21875 22.5 -18.546875 C 19.984375 -12.78125 15.65625 -9.71875 12.59375 -9.71875 Z M 24.296875 -26.640625 C 24.125 -26.28125 24.125 -25.921875 24.125 -25.5625 C 17.28125 -30.0625 16.203125 -35.8125 17.453125 -40.3125 C 18.359375 -43.203125 20.15625 -44.640625 21.0625 -44.640625 C 21.953125 -44.453125 25.015625 -41.046875 24.296875 -26.640625 Z M 24.296875 -26.640625 "/></g></g></g><g fill="#000000" fill-opacity="1"><g transform="translate(125.578247, 200.07386)"><g><path d="M 80.09375 -41.21875 C 78.65625 -42.484375 76.5 -42.296875 75.234375 -40.859375 C 61.015625 -24.484375 38.703125 1.625 35.09375 6.296875 C 34.015625 7.5625 32.9375 9 31.859375 10.4375 C 30.421875 6.84375 28.625 3.421875 26.28125 -0.1875 C 17.640625 -13.5 9.90625 -26.09375 10.265625 -34.921875 C 10.625 -41.9375 14.21875 -48.0625 20.15625 -51.65625 C 25.015625 -54.546875 30.421875 -55.078125 34.5625 -53.09375 C 36.1875 -52.375 38.34375 -53.09375 39.0625 -54.90625 C 39.953125 -56.515625 39.234375 -58.6875 37.4375 -59.40625 C 31.3125 -62.28125 23.40625 -61.5625 16.5625 -57.59375 C 8.640625 -52.734375 3.953125 -44.640625 3.421875 -35.28125 C 2.875 -24.296875 10.796875 -11.15625 20.515625 3.59375 C 23.578125 8.28125 25.5625 12.78125 26.8125 17.09375 C 12.78125 36.1875 -2.34375 60.65625 5.40625 68.21875 C 6.65625 69.484375 8.28125 70.015625 9.90625 70.015625 C 12.78125 70.015625 16.015625 68.578125 19.4375 65.875 C 29.15625 57.78125 39.234375 39.421875 34.375 18.546875 C 36.359375 16.015625 38.34375 13.3125 40.5 10.625 C 44.09375 6.125 66.421875 -19.984375 80.453125 -36.359375 C 81.71875 -37.796875 81.546875 -39.953125 80.09375 -41.21875 Z M 21.59375 52.921875 C 16.734375 60.125 11.875 63 10.265625 63.1875 C 9.546875 60.65625 11.875 50.21875 28.625 26.453125 C 29.34375 39.421875 23.9375 49.3125 21.59375 52.921875 Z M 21.59375 52.921875 "/></g></g><g transform="translate(198.118243, 200.07386)"><g><path d="M 52.5625 -40.859375 C 50.9375 -41.9375 48.953125 -41.40625 47.875 -39.78125 C 35.8125 -20.34375 15.65625 -1.984375 9.546875 -4.5 C 8.8125 -4.859375 3.0625 -8.28125 10.984375 -38.703125 C 11.34375 -40.6875 10.265625 -42.484375 8.453125 -43.015625 C 6.484375 -43.375 4.6875 -42.296875 4.140625 -40.5 C -2.34375 -15.125 -1.4375 -1.625 6.65625 1.796875 C 7.921875 2.34375 9.1875 2.515625 10.4375 2.515625 C 23.9375 2.515625 44.640625 -21.59375 53.8125 -36.1875 C 54.71875 -37.796875 54.1875 -39.953125 52.5625 -40.859375 Z M 10.078125 -55.4375 C 19.265625 -54.90625 19.078125 -66.421875 11.703125 -63.90625 C 7.921875 -62.8125 3.0625 -55.796875 10.078125 -55.4375 Z M 10.078125 -55.4375 "/></g></g></g><g fill="#000000" fill-opacity="1"><g transform="translate(243.658253, 200.07386)"><g><path d="M 72.359375 -40.140625 C 70.734375 -41.046875 68.578125 -40.5 67.6875 -38.703125 C 63.359375 -31.3125 52.015625 -11.34375 45.546875 -12.0625 C 44.28125 -12.234375 40.6875 -14.046875 37.078125 -26.640625 C 34.5625 -35.453125 31.140625 -43.734375 24.484375 -44.09375 C 19.625 -44.453125 14.21875 -40.6875 5.9375 -25.203125 C 8.09375 -32.9375 10.4375 -40.6875 12.234375 -46.984375 C 12.953125 -49.3125 13.5 -51.296875 14.046875 -53.28125 C 14.578125 -55.078125 13.5 -57.0625 11.703125 -57.59375 C 9.90625 -58.140625 7.921875 -57.0625 7.375 -55.078125 C 6.84375 -53.28125 6.296875 -51.125 5.578125 -48.953125 C 0.90625 -32.9375 -6.125 -8.640625 -7.921875 6.125 C -8.09375 7.734375 -7.015625 9.359375 -5.40625 9.71875 C -5.046875 9.90625 -4.859375 9.90625 -4.5 9.90625 C -3.0625 9.90625 -1.796875 9 -1.265625 7.734375 C 15.65625 -34.375 22.5 -37.265625 24.125 -37.265625 C 24.484375 -37.265625 27 -36.546875 30.421875 -24.65625 C 34.015625 -12.234375 38.703125 -5.9375 44.8125 -5.21875 C 54 -4.140625 62.28125 -15.484375 73.625 -35.28125 C 74.703125 -37.078125 73.984375 -39.0625 72.359375 -40.140625 Z M 72.359375 -40.140625 "/></g></g></g><g fill="#000000" fill-opacity="1"><g transform="translate(307.918244, 200.07386)"><g><path d="M 60.84375 -40.140625 C 59.21875 -41.21875 57.0625 -40.859375 55.984375 -39.234375 C 42.484375 -20.34375 31.5 -8.453125 20.703125 -0.71875 C 15.296875 3.0625 10.078125 3.78125 6.65625 1.265625 C 4.5 -0.359375 -2.15625 -7.5625 5.578125 -32.765625 C 23.046875 -47.15625 32.578125 -60.84375 30.0625 -68.046875 C 29.15625 -70.203125 27 -71.640625 24.65625 -71.640625 C 17.453125 -71.453125 6.484375 -59.046875 -0.71875 -35.8125 C -9.546875 -7.203125 -2.34375 3.234375 2.703125 6.84375 C 5.21875 8.8125 8.09375 9.71875 11.34375 9.71875 C 15.484375 9.71875 20.15625 8.09375 24.65625 4.859375 C 36.1875 -3.421875 47.515625 -15.65625 61.5625 -35.28125 C 62.640625 -36.90625 62.28125 -39.0625 60.84375 -40.140625 Z M 23.21875 -64.078125 C 22.5 -61.203125 19.4375 -55.4375 10.984375 -46.796875 C 15.65625 -57.234375 20.703125 -62.28125 23.21875 -64.078125 Z M 23.21875 -64.078125 "/></g></g></g></svg>